<svg width="354" height="303" viewBox="0 0 354 303" fill="none" xmlns="http://www.w3.org/2000/svg">
<path d="M180.849 37.5C190.472 20.8333 214.528 20.8333 224.151 37.5L312.052 189.75C321.675 206.417 309.647 227.25 290.402 227.25H114.598C95.3534 227.25 83.3253 206.417 92.9478 189.75L180.849 37.5Z" fill="#5FC2BA"/>
<path d="M129.849 37.5C139.472 20.8333 163.528 20.8333 173.151 37.5L261.052 189.75C270.675 206.417 258.647 227.25 239.402 227.25H63.5984C44.3534 227.25 32.3253 206.417 41.9478 189.75L129.849 37.5Z" fill="#1C2942"/>
<path d="M144.872 120.2C144.872 129.928 144.787 138.291 144.616 145.288H157.672L158.952 136.456C163.304 136.456 167.528 137.523 171.624 139.656V165.256L163.176 165.64C161.128 162.568 159.933 159.88 159.592 157.576H144.488C144.317 169.523 144.232 178.525 144.232 184.584H166.12L168.936 173.448C174.227 173.448 178.237 173.704 180.968 174.216C182.248 179.08 182.888 183.517 182.888 187.528C182.888 191.453 182.76 194.611 182.504 197H119.016L117.864 189.96C123.411 187.827 126.995 186.589 128.616 186.248C128.531 181.213 128.445 174.131 128.36 165C128.019 144.52 127.72 129.032 127.464 118.536L116.84 115.208L117.864 107.4H180.712C180.968 109.704 181.096 112.605 181.096 116.104C181.096 119.517 180.456 124.296 179.176 130.44C176.531 131.293 172.52 131.72 167.144 131.72L164.2 120.2H144.872Z" fill="white"/>
</svg>
