<svg width="31" height="32" viewBox="0 0 31 32" fill="none" xmlns="http://www.w3.org/2000/svg">
<path opacity="0.4" d="M15.2105 29.331C14.2356 29.331 13.2621 28.9417 12.518 28.1643L11.5926 27.191C11.2339 26.815 10.7535 26.607 10.2439 26.6057H8.94201C6.83774 26.6057 5.12517 24.8043 5.12517 22.591V21.2203C5.1239 20.6857 4.92615 20.1803 4.56741 19.8003L3.65725 18.8443C2.16651 17.2857 2.16018 14.7377 3.64331 13.1683L4.56868 12.1937C4.92615 11.8163 5.1239 11.311 5.12517 10.775V9.40699C5.12517 7.19232 6.83774 5.39099 8.94201 5.39099H10.2451C10.7535 5.39099 11.2326 5.18299 11.5939 4.80299L12.5053 3.84699C13.9872 2.27899 16.4084 2.27099 17.9016 3.83232L18.827 4.80565C19.187 5.18299 19.6662 5.39099 20.1745 5.39099H21.4776C23.5819 5.39099 25.2945 7.19232 25.2945 9.40699V10.7763C25.2957 11.311 25.4935 11.8163 25.8522 12.1963L26.7624 13.1537C27.4837 13.9083 27.883 14.9137 27.8868 15.987C27.8893 17.0537 27.4989 18.0577 26.7877 18.8163C26.7751 18.8297 26.7637 18.8443 26.751 18.8563L25.851 19.803C25.4935 20.1803 25.2957 20.6857 25.2945 21.2217V22.591C25.2945 24.8043 23.5819 26.6057 21.4776 26.6057H20.1745C19.6662 26.607 19.1858 26.815 18.8257 27.1923L17.9143 28.1497C17.1715 28.9363 16.1903 29.331 15.2105 29.331" fill="#393939"/>
<path fill-rule="evenodd" clip-rule="evenodd" d="M12.7306 13.4012C12.5214 13.6212 12.2502 13.7399 11.9497 13.7399C11.6683 13.7399 11.392 13.6186 11.1701 13.3999C10.9597 13.1799 10.8405 12.8786 10.8405 12.5732C10.8405 12.2826 10.9572 11.9839 11.1625 11.7532C11.2753 11.6332 11.4097 11.5426 11.5441 11.4946C11.9269 11.3106 12.4352 11.4186 12.7369 11.7519C12.8447 11.8652 12.9271 11.9892 12.9816 12.1186C13.0412 12.2572 13.0716 12.4146 13.0716 12.5732C13.0716 12.8906 12.9512 13.1852 12.7306 13.4012ZM19.256 11.7464C18.8237 11.2931 18.1202 11.2931 17.6879 11.7464L11.1723 18.5998C10.74 19.0544 10.74 19.7944 11.1723 20.2504C11.3827 20.4704 11.6603 20.5918 11.957 20.5918C12.2536 20.5918 12.5312 20.4704 12.7403 20.2504L19.256 13.3971C19.6882 12.9411 19.6882 12.2024 19.256 11.7464ZM18.8951 18.3519C18.4844 18.1706 17.9976 18.2692 17.6731 18.6106C17.6059 18.6932 17.5108 18.8212 17.4462 18.9719C17.3777 19.1346 17.3689 19.3092 17.3689 19.4266C17.3689 19.5439 17.3777 19.7172 17.4462 19.8799C17.5096 20.0292 17.5856 20.1506 17.6858 20.2559C17.9152 20.4799 18.1814 20.5932 18.478 20.5932C18.7594 20.5932 19.0358 20.4732 19.2627 20.2506C19.4643 20.0386 19.5745 19.7452 19.5745 19.4266C19.5745 19.1066 19.4643 18.8146 19.2614 18.6012C19.1499 18.4852 19.0155 18.3946 18.8951 18.3519Z" fill="#6D00FF"/>
</svg>
