<svg width="157" height="53" viewBox="0 0 157 53" fill="none" xmlns="http://www.w3.org/2000/svg">
<path d="M63.0363 26.7C63.0363 25.464 63.3123 24.36 63.8643 23.388C64.4283 22.404 65.1903 21.642 66.1503 21.102C67.1223 20.55 68.2083 20.274 69.4083 20.274C70.8123 20.274 72.0423 20.634 73.0983 21.354C74.1543 22.074 74.8923 23.07 75.3123 24.342H72.4143C72.1263 23.742 71.7183 23.292 71.1903 22.992C70.6743 22.692 70.0743 22.542 69.3903 22.542C68.6583 22.542 68.0043 22.716 67.4283 23.064C66.8643 23.4 66.4203 23.88 66.0963 24.504C65.7843 25.128 65.6283 25.86 65.6283 26.7C65.6283 27.528 65.7843 28.26 66.0963 28.896C66.4203 29.52 66.8643 30.006 67.4283 30.354C68.0043 30.69 68.6583 30.858 69.3903 30.858C70.0743 30.858 70.6743 30.708 71.1903 30.408C71.7183 30.096 72.1263 29.64 72.4143 29.04H75.3123C74.8923 30.324 74.1543 31.326 73.0983 32.046C72.0543 32.754 70.8243 33.108 69.4083 33.108C68.2083 33.108 67.1223 32.838 66.1503 32.298C65.1903 31.746 64.4283 30.984 63.8643 30.012C63.3123 29.04 63.0363 27.936 63.0363 26.7ZM76.8167 27.978C76.8167 26.97 77.0147 26.076 77.4107 25.296C77.8187 24.516 78.3647 23.916 79.0487 23.496C79.7447 23.076 80.5187 22.866 81.3707 22.866C82.1147 22.866 82.7627 23.016 83.3147 23.316C83.8787 23.616 84.3287 23.994 84.6647 24.45V23.028H87.2027V33H84.6647V31.542C84.3407 32.01 83.8907 32.4 83.3147 32.712C82.7507 33.012 82.0967 33.162 81.3527 33.162C80.5127 33.162 79.7447 32.946 79.0487 32.514C78.3647 32.082 77.8187 31.476 77.4107 30.696C77.0147 29.904 76.8167 28.998 76.8167 27.978ZM84.6647 28.014C84.6647 27.402 84.5447 26.88 84.3047 26.448C84.0647 26.004 83.7407 25.668 83.3327 25.44C82.9247 25.2 82.4867 25.08 82.0187 25.08C81.5507 25.08 81.1187 25.194 80.7227 25.422C80.3267 25.65 80.0027 25.986 79.7507 26.43C79.5107 26.862 79.3907 27.378 79.3907 27.978C79.3907 28.578 79.5107 29.106 79.7507 29.562C80.0027 30.006 80.3267 30.348 80.7227 30.588C81.1307 30.828 81.5627 30.948 82.0187 30.948C82.4867 30.948 82.9247 30.834 83.3327 30.606C83.7407 30.366 84.0647 30.03 84.3047 29.598C84.5447 29.154 84.6647 28.626 84.6647 28.014ZM93.4799 33.162C92.6639 33.162 91.9319 33.018 91.2839 32.73C90.6359 32.43 90.1199 32.028 89.7359 31.524C89.3639 31.02 89.1599 30.462 89.1239 29.85H91.6619C91.7099 30.234 91.8959 30.552 92.2199 30.804C92.5559 31.056 92.9699 31.182 93.4619 31.182C93.9419 31.182 94.3139 31.086 94.5779 30.894C94.8539 30.702 94.9919 30.456 94.9919 30.156C94.9919 29.832 94.8239 29.592 94.4879 29.436C94.1639 29.268 93.6419 29.088 92.9219 28.896C92.1779 28.716 91.5659 28.53 91.0859 28.338C90.6179 28.146 90.2099 27.852 89.8619 27.456C89.5259 27.06 89.3579 26.526 89.3579 25.854C89.3579 25.302 89.5139 24.798 89.8259 24.342C90.1499 23.886 90.6059 23.526 91.1939 23.262C91.7939 22.998 92.4959 22.866 93.2999 22.866C94.4879 22.866 95.4359 23.166 96.1439 23.766C96.8519 24.354 97.2419 25.152 97.3139 26.16H94.9019C94.8659 25.764 94.6979 25.452 94.3979 25.224C94.1099 24.984 93.7199 24.864 93.2279 24.864C92.7719 24.864 92.4179 24.948 92.1659 25.116C91.9259 25.284 91.8059 25.518 91.8059 25.818C91.8059 26.154 91.9739 26.412 92.3099 26.592C92.6459 26.76 93.1679 26.934 93.8759 27.114C94.5959 27.294 95.1899 27.48 95.6579 27.672C96.1259 27.864 96.5279 28.164 96.8639 28.572C97.2119 28.968 97.3919 29.496 97.4039 30.156C97.4039 30.732 97.2419 31.248 96.9179 31.704C96.6059 32.16 96.1499 32.52 95.5499 32.784C94.9619 33.036 94.2719 33.162 93.4799 33.162ZM105.088 22.884C105.844 22.884 106.516 23.052 107.104 23.388C107.692 23.712 108.148 24.198 108.472 24.846C108.808 25.482 108.976 26.25 108.976 27.15V33H106.456V27.492C106.456 26.7 106.258 26.094 105.862 25.674C105.466 25.242 104.926 25.026 104.242 25.026C103.546 25.026 102.994 25.242 102.586 25.674C102.19 26.094 101.992 26.7 101.992 27.492V33H99.4725V19.68H101.992V24.27C102.316 23.838 102.748 23.502 103.288 23.262C103.828 23.01 104.428 22.884 105.088 22.884Z" fill="white"/>
<path d="M118.501 26.556C119.209 26.688 119.791 27.042 120.247 27.618C120.703 28.194 120.931 28.854 120.931 29.598C120.931 30.27 120.763 30.864 120.427 31.38C120.103 31.884 119.629 32.28 119.005 32.568C118.381 32.856 117.643 33 116.791 33H111.373V20.436H116.557C117.409 20.436 118.141 20.574 118.753 20.85C119.377 21.126 119.845 21.51 120.157 22.002C120.481 22.494 120.643 23.052 120.643 23.676C120.643 24.408 120.445 25.02 120.049 25.512C119.665 26.004 119.149 26.352 118.501 26.556ZM113.893 25.62H116.197C116.797 25.62 117.259 25.488 117.583 25.224C117.907 24.948 118.069 24.558 118.069 24.054C118.069 23.55 117.907 23.16 117.583 22.884C117.259 22.608 116.797 22.47 116.197 22.47H113.893V25.62ZM116.431 30.948C117.043 30.948 117.517 30.804 117.853 30.516C118.201 30.228 118.375 29.82 118.375 29.292C118.375 28.752 118.195 28.332 117.835 28.032C117.475 27.72 116.989 27.564 116.377 27.564H113.893V30.948H116.431ZM122.291 27.978C122.291 26.97 122.489 26.076 122.885 25.296C123.293 24.516 123.839 23.916 124.523 23.496C125.219 23.076 125.993 22.866 126.845 22.866C127.589 22.866 128.237 23.016 128.789 23.316C129.353 23.616 129.803 23.994 130.139 24.45V23.028H132.677V33H130.139V31.542C129.815 32.01 129.365 32.4 128.789 32.712C128.225 33.012 127.571 33.162 126.827 33.162C125.987 33.162 125.219 32.946 124.523 32.514C123.839 32.082 123.293 31.476 122.885 30.696C122.489 29.904 122.291 28.998 122.291 27.978ZM130.139 28.014C130.139 27.402 130.019 26.88 129.779 26.448C129.539 26.004 129.215 25.668 128.807 25.44C128.399 25.2 127.961 25.08 127.493 25.08C127.025 25.08 126.593 25.194 126.197 25.422C125.801 25.65 125.477 25.986 125.225 26.43C124.985 26.862 124.865 27.378 124.865 27.978C124.865 28.578 124.985 29.106 125.225 29.562C125.477 30.006 125.801 30.348 126.197 30.588C126.605 30.828 127.037 30.948 127.493 30.948C127.961 30.948 128.399 30.834 128.807 30.606C129.215 30.366 129.539 30.03 129.779 29.598C130.019 29.154 130.139 28.626 130.139 28.014ZM140.664 22.884C141.852 22.884 142.812 23.262 143.544 24.018C144.276 24.762 144.642 25.806 144.642 27.15V33H142.122V27.492C142.122 26.7 141.924 26.094 141.528 25.674C141.132 25.242 140.592 25.026 139.908 25.026C139.212 25.026 138.66 25.242 138.252 25.674C137.856 26.094 137.658 26.7 137.658 27.492V33H135.138V23.028H137.658V24.27C137.994 23.838 138.42 23.502 138.936 23.262C139.464 23.01 140.04 22.884 140.664 22.884ZM152.943 33L149.559 28.752V33H147.039V19.68H149.559V27.258L152.907 23.028H156.183L151.791 28.032L156.219 33H152.943Z" fill="#8443DA"/>
<path d="M31.6741 6.55952C33.3595 3.64422 37.5727 3.64422 39.2581 6.55952L54.6532 33.1907C56.3386 36.1061 54.232 39.7501 50.8614 39.7501H20.0708C16.7003 39.7501 14.5937 36.1061 16.279 33.1907L31.6741 6.55952Z" fill="#5FC2BA"/>
<path d="M22.7419 6.55952C24.4273 3.64422 28.6405 3.64422 30.3259 6.55952L45.721 33.1907C47.4063 36.1061 45.2997 39.7501 41.9291 39.7501H11.1387C7.7681 39.7501 5.66148 36.1061 7.34678 33.1907L22.7419 6.55952Z" fill="#1C2942"/>
<path d="M25.3731 21.0251C25.3731 22.7267 25.3582 24.1895 25.3282 25.4134H27.6149L27.839 23.8685C28.6013 23.8685 29.3411 24.0552 30.0584 24.4283V28.9062L28.5788 28.9733C28.2202 28.436 28.0109 27.9658 27.9511 27.5628H25.3058C25.2759 29.6525 25.261 31.2271 25.261 32.287H29.0945L29.5877 30.3391C30.5143 30.3391 31.2166 30.3839 31.695 30.4734C31.9191 31.3242 32.0312 32.1003 32.0312 32.8019C32.0312 33.4885 32.0088 34.0409 31.964 34.4587H20.8446L20.6428 33.2273C21.6144 32.8542 22.2421 32.6377 22.526 32.578C22.5111 31.6973 22.496 30.4586 22.4811 28.8614C22.4214 25.2791 22.369 22.5699 22.3242 20.734L20.4635 20.1519L20.6428 18.7861H31.6501C31.695 19.1891 31.7174 19.6966 31.7174 20.3086C31.7174 20.9056 31.6053 21.7415 31.3811 22.8162C30.9179 22.9654 30.2154 23.0401 29.2738 23.0401L28.7582 21.0251H25.3731Z" fill="white"/>
</svg>
